REM DIRINDEX 1\2\5,1\2\6,1\2\7,1\2\8,1\3\9,1\3\10,1\3\11,1\4\12,1\4\13,1\4\14,1\4\15,1\4\16
REM DIRNAME folder01,folder02,folder03,folder04,folder05,folder06,folder07,folder08,folder09,folder10,folder11,folder12,folder13,folder14,folder15,folder16
TITLE ""
FILE "1200_2_sec04_1342_1357.mp3" MP3
  TRACK 01 AUDIO
    TITLE "0:"
    INDEX 01 00:00:00
  TRACK 02 AUDIO
    TITLE "10:cjc034_02784"
    INDEX 01 00:00:13
  TRACK 03 AUDIO
    TITLE "0:"
    INDEX 01 00:02:18
  TRACK 04 AUDIO
    TITLE "9:cjc034_02785"
    INDEX 01 00:02:22
  TRACK 05 AUDIO
    TITLE "0:"
    INDEX 01 00:03:35
  TRACK 06 AUDIO
    TITLE "10:cjc034_02786"
    INDEX 01 00:04:13
  TRACK 07 AUDIO
    TITLE "0:"
    INDEX 01 00:06:00
  TRACK 08 AUDIO
    TITLE "9:cjc034_02787"
    INDEX 01 00:06:06
  TRACK 09 AUDIO
    TITLE "0:"
    INDEX 01 00:07:15
  TRACK 10 AUDIO
    TITLE "10:cjc034_02788"
    INDEX 01 00:07:72
  TRACK 11 AUDIO
    TITLE "0:"
    INDEX 01 00:09:12
  TRACK 12 AUDIO
    TITLE "9:cjc034_02789"
    INDEX 01 00:09:16
  TRACK 13 AUDIO
    TITLE "0:"
    INDEX 01 00:10:21
  TRACK 14 AUDIO
    TITLE "10:cjc034_02790"
    INDEX 01 00:11:01
  TRACK 15 AUDIO
    TITLE "0:"
    INDEX 01 00:14:00
  TRACK 16 AUDIO
    TITLE "9:cjc034_02791"
    INDEX 01 00:14:07
  TRACK 17 AUDIO
    TITLE "0:"
    INDEX 01 00:15:03
  TRACK 18 AUDIO
    TITLE "10:cjc034_02792"
    INDEX 01 00:15:62
  TRACK 19 AUDIO
    TITLE "0:"
    INDEX 01 00:19:22
  TRACK 20 AUDIO
    TITLE "9:cjc034_02793"
    INDEX 01 00:19:28
  TRACK 21 AUDIO
    TITLE "0:"
    INDEX 01 00:20:39
  TRACK 22 AUDIO
    TITLE "11:cjc034_02794"
    INDEX 01 00:22:07
  TRACK 23 AUDIO
    TITLE "0:"
    INDEX 01 00:26:01
  TRACK 24 AUDIO
    TITLE "10:cjc034_02795"
    INDEX 01 00:27:02
  TRACK 25 AUDIO
    TITLE "0:"
    INDEX 01 00:28:17
  TRACK 26 AUDIO
    TITLE "9:cjc034_02796"
    INDEX 01 00:28:23
  TRACK 27 AUDIO
    TITLE "0:"
    INDEX 01 00:29:52
  TRACK 28 AUDIO
    TITLE "10:cjc034_02797"
    INDEX 01 00:30:34
  TRACK 29 AUDIO
    TITLE "0:"
    INDEX 01 00:31:49
  TRACK 30 AUDIO
    TITLE "9:cjc034_02798"
    INDEX 01 00:31:51
  TRACK 31 AUDIO
    TITLE "0:"
    INDEX 01 00:33:09
  TRACK 32 AUDIO
    TITLE "10:cjc034_02799"
    INDEX 01 00:33:73
  TRACK 33 AUDIO
    TITLE "0:"
    INDEX 01 00:36:01
  TRACK 34 AUDIO
    TITLE "9:cjc034_02800"
    INDEX 01 00:36:05
  TRACK 35 AUDIO
    TITLE "0:"
    INDEX 01 00:37:24
  TRACK 36 AUDIO
    TITLE "11:cjc034_02801"
    INDEX 01 00:39:03
  TRACK 37 AUDIO
    TITLE "0:"
    INDEX 01 00:42:72
  TRACK 38 AUDIO
    TITLE "10:cjc034_02802"
    INDEX 01 00:43:70
  TRACK 39 AUDIO
    TITLE "0:"
    INDEX 01 00:47:21
  TRACK 40 AUDIO
    TITLE "9:cjc034_02803"
    INDEX 01 00:47:30
  TRACK 41 AUDIO
    TITLE "0:"
    INDEX 01 00:48:36
  TRACK 42 AUDIO
    TITLE "10:cjc034_02804"
    INDEX 01 00:51:20
  TRACK 43 AUDIO
    TITLE "0:"
    INDEX 01 00:54:50
  TRACK 44 AUDIO
    TITLE "9:cjc034_02805"
    INDEX 01 00:54:52
  TRACK 45 AUDIO
    TITLE "0:"
    INDEX 01 00:55:57
  TRACK 46 AUDIO
    TITLE "11:cjc034_02806"
    INDEX 01 00:59:24
  TRACK 47 AUDIO
    TITLE "0:"
    INDEX 01 01:03:16
  TRACK 48 AUDIO
    TITLE "10:cjc034_02807"
    INDEX 01 01:04:17
  TRACK 49 AUDIO
    TITLE "0:"
    INDEX 01 01:09:09
  TRACK 50 AUDIO
    TITLE "9:cjc034_02808"
    INDEX 01 01:09:16
  TRACK 51 AUDIO
    TITLE "0:"
    INDEX 01 01:10:30
  TRACK 52 AUDIO
    TITLE "10:cjc034_02809"
    INDEX 01 01:11:11
  TRACK 53 AUDIO
    TITLE "0:"
    INDEX 01 01:13:63
  TRACK 54 AUDIO
    TITLE "9:cjc034_02810"
    INDEX 01 01:14:00
  TRACK 55 AUDIO
    TITLE "0:"
    INDEX 01 01:15:21
  TRACK 56 AUDIO
    TITLE "11:cjc034_02811"
    INDEX 01 01:16:67
  TRACK 57 AUDIO
    TITLE "0:"
    INDEX 01 01:21:63
  TRACK 58 AUDIO
    TITLE "10:cjc034_02812"
    INDEX 01 01:22:58
  TRACK 59 AUDIO
    TITLE "0:"
    INDEX 01 01:24:22
  TRACK 60 AUDIO
    TITLE "9:cjc034_02813"
    INDEX 01 01:24:24
  TRACK 61 AUDIO
    TITLE "0:"
    INDEX 01 01:25:39
  TRACK 62 AUDIO
    TITLE "10:cjc034_02814"
    INDEX 01 01:26:19
  TRACK 63 AUDIO
    TITLE "0:"
    INDEX 01 01:28:43
  TRACK 64 AUDIO
    TITLE "9:cjc034_02815"
    INDEX 01 01:28:47
  TRACK 65 AUDIO
    TITLE "0:"
    INDEX 01 01:29:72
  TRACK 66 AUDIO
    TITLE "10:cjc034_02816"
    INDEX 01 01:30:52
  TRACK 67 AUDIO
    TITLE "0:"
    INDEX 01 01:32:06
  TRACK 68 AUDIO
    TITLE "9:cjc034_02817"
    INDEX 01 01:32:13
  TRACK 69 AUDIO
    TITLE "0:"
    INDEX 01 01:33:40
  TRACK 70 AUDIO
    TITLE "10:cjc034_02818"
    INDEX 01 01:34:22
  TRACK 71 AUDIO
    TITLE "0:"
    INDEX 01 01:35:24
  TRACK 72 AUDIO
    TITLE "9:cjc034_02819"
    INDEX 01 01:35:26
  TRACK 73 AUDIO
    TITLE "0:"
    INDEX 01 01:36:60
